<svg width="312" height="225" viewBox="0 0 312 225" fill="none" xmlns="http://www.w3.org/2000/svg">
<rect width="312" height="225" rx="16" fill="#F3F3F4"/>
<rect x="16" y="16" width="280" height="140" rx="12" fill="#9D11FF"/>
<path d="M20.613 187.21C19.8757 187.21 19.2573 187.035 18.758 186.685C18.2587 186.335 17.883 185.859 17.631 185.257C17.379 184.65 17.253 183.971 17.253 183.22C17.253 182.459 17.379 181.778 17.631 181.176C17.883 180.574 18.2517 180.1 18.737 179.755C19.227 179.405 19.8313 179.23 20.55 179.23C21.264 179.23 21.8823 179.405 22.405 179.755C22.9323 180.1 23.3407 180.574 23.63 181.176C23.9193 181.773 24.064 182.455 24.064 183.22C24.064 183.976 23.9217 184.655 23.637 185.257C23.3523 185.859 22.951 186.335 22.433 186.685C21.915 187.035 21.3083 187.21 20.613 187.21ZM16.966 190.36V179.44H18.457V184.746H18.667V190.36H16.966ZM20.354 185.698C20.7927 185.698 21.1543 185.588 21.439 185.369C21.7237 185.15 21.9337 184.853 22.069 184.48C22.209 184.102 22.279 183.682 22.279 183.22C22.279 182.763 22.209 182.347 22.069 181.974C21.929 181.596 21.712 181.297 21.418 181.078C21.124 180.854 20.7507 180.742 20.298 180.742C19.8687 180.742 19.5187 180.847 19.248 181.057C18.9773 181.262 18.7767 181.552 18.646 181.925C18.52 182.294 18.457 182.725 18.457 183.22C18.457 183.71 18.52 184.142 18.646 184.515C18.7767 184.888 18.9797 185.18 19.255 185.39C19.535 185.595 19.9013 185.698 20.354 185.698ZM25.607 187V179.44H27.098V181.281L26.916 181.043C27.0093 180.791 27.133 180.562 27.287 180.357C27.4456 180.147 27.6346 179.974 27.854 179.839C28.0406 179.713 28.246 179.615 28.47 179.545C28.6986 179.47 28.932 179.426 29.17 179.412C29.408 179.393 29.639 179.403 29.863 179.44V181.015C29.639 180.95 29.38 180.929 29.086 180.952C28.7966 180.975 28.5353 181.057 28.302 181.197C28.0686 181.323 27.8773 181.484 27.728 181.68C27.5833 181.876 27.476 182.1 27.406 182.352C27.336 182.599 27.301 182.868 27.301 183.157V187H25.607ZM31.3388 178.292V176.745H33.0258V178.292H31.3388ZM31.3388 187V179.44H33.0258V187H31.3388ZM44.2016 187V182.408C44.2016 181.89 44.0732 181.486 43.8166 181.197C43.5599 180.903 43.2122 180.756 42.7736 180.756C42.5029 180.756 42.2602 180.819 42.0456 180.945C41.8309 181.066 41.6606 181.248 41.5346 181.491C41.4086 181.729 41.3456 182.014 41.3456 182.345L40.5966 181.904C40.5919 181.381 40.7086 180.922 40.9466 180.525C41.1892 180.124 41.5159 179.811 41.9266 179.587C42.3372 179.363 42.7946 179.251 43.2986 179.251C44.1339 179.251 44.7732 179.503 45.2166 180.007C45.6646 180.506 45.8886 181.164 45.8886 181.981V187H44.2016ZM35.1086 187V179.44H36.5996V181.785H36.8096V187H35.1086ZM39.6656 187V182.429C39.6656 181.902 39.5372 181.491 39.2806 181.197C39.0239 180.903 38.6739 180.756 38.2306 180.756C37.8012 180.756 37.4559 180.903 37.1946 181.197C36.9379 181.491 36.8096 181.874 36.8096 182.345L36.0536 181.841C36.0536 181.351 36.1749 180.91 36.4176 180.518C36.6602 180.126 36.9869 179.818 37.3976 179.594C37.8129 179.365 38.2772 179.251 38.7906 179.251C39.3552 179.251 39.8266 179.372 40.2046 179.615C40.5872 179.853 40.8719 180.18 41.0586 180.595C41.2499 181.006 41.3456 181.47 41.3456 181.988V187H39.6656ZM49.8284 187.21C49.2824 187.21 48.8204 187.107 48.4424 186.902C48.0644 186.692 47.7774 186.414 47.5814 186.069C47.39 185.724 47.2944 185.343 47.2944 184.928C47.2944 184.564 47.355 184.237 47.4764 183.948C47.5977 183.654 47.7844 183.402 48.0364 183.192C48.2884 182.977 48.615 182.802 49.0164 182.667C49.3197 182.569 49.6744 182.48 50.0804 182.401C50.491 182.322 50.9344 182.249 51.4104 182.184C51.891 182.114 52.3927 182.039 52.9154 181.96L52.3134 182.303C52.318 181.78 52.2014 181.395 51.9634 181.148C51.7254 180.901 51.324 180.777 50.7594 180.777C50.4187 180.777 50.0897 180.856 49.7724 181.015C49.455 181.174 49.2334 181.447 49.1074 181.834L47.5674 181.351C47.754 180.712 48.1087 180.198 48.6314 179.811C49.1587 179.424 49.868 179.23 50.7594 179.23C51.4314 179.23 52.0217 179.34 52.5304 179.559C53.0437 179.778 53.424 180.138 53.6714 180.637C53.8067 180.903 53.8884 181.176 53.9164 181.456C53.9444 181.731 53.9584 182.032 53.9584 182.359V187H52.4814V185.362L52.7264 185.628C52.3857 186.174 51.9867 186.575 51.5294 186.832C51.0767 187.084 50.5097 187.21 49.8284 187.21ZM50.1644 185.866C50.547 185.866 50.8737 185.798 51.1444 185.663C51.415 185.528 51.6297 185.362 51.7884 185.166C51.9517 184.97 52.0614 184.786 52.1174 184.613C52.206 184.398 52.255 184.153 52.2644 183.878C52.2784 183.598 52.2854 183.372 52.2854 183.199L52.8034 183.353C52.2947 183.432 51.8584 183.502 51.4944 183.563C51.1304 183.624 50.8177 183.682 50.5564 183.738C50.295 183.789 50.064 183.848 49.8634 183.913C49.6674 183.983 49.5017 184.065 49.3664 184.158C49.231 184.251 49.126 184.359 49.0514 184.48C48.9814 184.601 48.9464 184.744 48.9464 184.907C48.9464 185.094 48.993 185.259 49.0864 185.404C49.1797 185.544 49.315 185.656 49.4924 185.74C49.6744 185.824 49.8984 185.866 50.1644 185.866ZM55.7808 187V179.44H57.2718V181.281L57.0898 181.043C57.1831 180.791 57.3068 180.562 57.4608 180.357C57.6194 180.147 57.8084 179.974 58.0278 179.839C58.2144 179.713 58.4198 179.615 58.6438 179.545C58.8724 179.47 59.1058 179.426 59.3438 179.412C59.5818 179.393 59.8128 179.403 60.0368 179.44V181.015C59.8128 180.95 59.5538 180.929 59.2598 180.952C58.9704 180.975 58.7091 181.057 58.4758 181.197C58.2424 181.323 58.0511 181.484 57.9018 181.68C57.7571 181.876 57.6498 182.1 57.5798 182.352C57.5098 182.599 57.4748 182.868 57.4748 183.157V187H55.7808ZM62.1342 190.36L63.5902 186.363L63.6182 187.539L60.3212 179.44H62.0782L64.4162 185.432H63.9682L66.2432 179.44H67.9302L63.7162 190.36H62.1342ZM74.3249 176.92H76.0189L73.3309 187H71.6369L74.3249 176.92ZM83.8913 176.724C84.5493 176.724 85.1419 176.88 85.6693 177.193C86.1966 177.501 86.6119 177.93 86.9153 178.481C87.2233 179.027 87.3773 179.657 87.3773 180.371V183.444C87.3773 184.205 87.2233 184.87 86.9153 185.439C86.6119 186.004 86.1849 186.44 85.6343 186.748C85.0836 187.056 84.4396 187.21 83.7023 187.21C83.1936 187.21 82.7129 187.124 82.2603 186.951C81.8076 186.774 81.4016 186.503 81.0423 186.139L82.2533 184.956C82.4353 185.166 82.6523 185.332 82.9043 185.453C83.1609 185.57 83.4269 185.628 83.7023 185.628C84.0943 185.628 84.4373 185.537 84.7313 185.355C85.0253 185.168 85.2539 184.928 85.4173 184.634C85.5806 184.335 85.6623 184.016 85.6623 183.675V182.002L85.9633 182.338C85.6786 182.674 85.3333 182.938 84.9273 183.129C84.5213 183.316 84.0943 183.409 83.6463 183.409C83.0163 183.409 82.4563 183.264 81.9663 182.975C81.4809 182.686 81.0983 182.294 80.8183 181.799C80.5429 181.3 80.4053 180.735 80.4053 180.105C80.4053 179.475 80.5639 178.906 80.8813 178.397C81.1986 177.884 81.6209 177.478 82.1483 177.179C82.6803 176.876 83.2613 176.724 83.8913 176.724ZM83.8913 178.334C83.5646 178.334 83.2659 178.413 82.9953 178.572C82.7246 178.731 82.5099 178.945 82.3513 179.216C82.1926 179.482 82.1133 179.778 82.1133 180.105C82.1133 180.432 82.1903 180.73 82.3443 181.001C82.5029 181.272 82.7153 181.486 82.9813 181.645C83.2519 181.804 83.5506 181.883 83.8773 181.883C84.2039 181.883 84.5026 181.804 84.7733 181.645C85.0439 181.486 85.2586 181.272 85.4173 181.001C85.5806 180.73 85.6623 180.432 85.6623 180.105C85.6623 179.788 85.5829 179.496 85.4243 179.23C85.2656 178.959 85.0509 178.742 84.7803 178.579C84.5143 178.416 84.2179 178.334 83.8913 178.334ZM92.9576 187.21C92.2436 187.21 91.6136 187.058 91.0676 186.755C90.5216 186.447 90.0946 186.02 89.7866 185.474C89.4832 184.928 89.3316 184.298 89.3316 183.584V180.336C89.3316 179.622 89.4832 178.992 89.7866 178.446C90.0946 177.9 90.5216 177.475 91.0676 177.172C91.6136 176.864 92.2436 176.71 92.9576 176.71C93.6716 176.71 94.2992 176.864 94.8406 177.172C95.3866 177.475 95.8136 177.9 96.1216 178.446C96.4296 178.992 96.5836 179.622 96.5836 180.336V183.584C96.5836 184.298 96.4296 184.928 96.1216 185.474C95.8136 186.02 95.3866 186.447 94.8406 186.755C94.2992 187.058 93.6716 187.21 92.9576 187.21ZM92.9576 185.607C93.3122 185.607 93.6342 185.523 93.9236 185.355C94.2129 185.182 94.4416 184.954 94.6096 184.669C94.7776 184.38 94.8616 184.058 94.8616 183.703V180.21C94.8616 179.851 94.7776 179.529 94.6096 179.244C94.4416 178.955 94.2129 178.726 93.9236 178.558C93.6342 178.385 93.3122 178.299 92.9576 178.299C92.6029 178.299 92.2809 178.385 91.9916 178.558C91.7022 178.726 91.4736 178.955 91.3056 179.244C91.1376 179.529 91.0536 179.851 91.0536 180.21V183.703C91.0536 184.058 91.1376 184.38 91.3056 184.669C91.4736 184.954 91.7022 185.182 91.9916 185.355C92.2809 185.523 92.6029 185.607 92.9576 185.607ZM102.172 187.21C101.458 187.21 100.828 187.058 100.282 186.755C99.7364 186.447 99.3094 186.02 99.0014 185.474C98.6981 184.928 98.5464 184.298 98.5464 183.584V180.336C98.5464 179.622 98.6981 178.992 99.0014 178.446C99.3094 177.9 99.7364 177.475 100.282 177.172C100.828 176.864 101.458 176.71 102.172 176.71C102.886 176.71 103.514 176.864 104.055 177.172C104.601 177.475 105.028 177.9 105.336 178.446C105.644 178.992 105.798 179.622 105.798 180.336V183.584C105.798 184.298 105.644 184.928 105.336 185.474C105.028 186.02 104.601 186.447 104.055 186.755C103.514 187.058 102.886 187.21 102.172 187.21ZM102.172 185.607C102.527 185.607 102.849 185.523 103.138 185.355C103.428 185.182 103.656 184.954 103.824 184.669C103.992 184.38 104.076 184.058 104.076 183.703V180.21C104.076 179.851 103.992 179.529 103.824 179.244C103.656 178.955 103.428 178.726 103.138 178.558C102.849 178.385 102.527 178.299 102.172 178.299C101.818 178.299 101.496 178.385 101.206 178.558C100.917 178.726 100.688 178.955 100.52 179.244C100.352 179.529 100.268 179.851 100.268 180.21V183.703C100.268 184.058 100.352 184.38 100.52 184.669C100.688 184.954 100.917 185.182 101.206 185.355C101.496 185.523 101.818 185.607 102.172 185.607Z" fill="#111111"/>
<path d="M16.72 202.598V201.842H21.76V202.598H16.72ZM23.2005 202.598V201.842H26.8005V202.598H23.2005ZM31.2695 206.18C30.6735 206.18 30.1695 206.03 29.7575 205.73C29.3455 205.426 29.0335 205.016 28.8215 204.5C28.6095 203.98 28.5035 203.398 28.5035 202.754C28.5035 202.098 28.6095 201.514 28.8215 201.002C29.0375 200.486 29.3535 200.08 29.7695 199.784C30.1855 199.488 30.6975 199.34 31.3055 199.34C31.8975 199.34 32.4055 199.49 32.8295 199.79C33.2535 200.09 33.5775 200.498 33.8015 201.014C34.0295 201.53 34.1435 202.11 34.1435 202.754C34.1435 203.402 34.0295 203.984 33.8015 204.5C33.5735 205.016 33.2455 205.426 32.8175 205.73C32.3895 206.03 31.8735 206.18 31.2695 206.18ZM28.3535 208.88V199.52H29.1455V204.398H29.2415V208.88H28.3535ZM31.1795 205.358C31.6315 205.358 32.0075 205.244 32.3075 205.016C32.6075 204.788 32.8315 204.478 32.9795 204.086C33.1315 203.69 33.2075 203.246 33.2075 202.754C33.2075 202.266 33.1335 201.826 32.9855 201.434C32.8375 201.042 32.6115 200.732 32.3075 200.504C32.0075 200.276 31.6255 200.162 31.1615 200.162C30.7095 200.162 30.3335 200.272 30.0335 200.492C29.7375 200.712 29.5155 201.018 29.3675 201.41C29.2195 201.798 29.1455 202.246 29.1455 202.754C29.1455 203.254 29.2195 203.702 29.3675 204.098C29.5155 204.49 29.7395 204.798 30.0395 205.022C30.3395 205.246 30.7195 205.358 31.1795 205.358ZM35.4611 206V199.52H36.2531V201.08L36.0971 200.876C36.1691 200.684 36.2631 200.508 36.3791 200.348C36.4951 200.184 36.6211 200.05 36.7571 199.946C36.9251 199.798 37.1211 199.686 37.3451 199.61C37.5691 199.53 37.7951 199.484 38.0231 199.472C38.2511 199.456 38.4591 199.472 38.6471 199.52V200.348C38.4111 200.288 38.1531 200.274 37.8731 200.306C37.5931 200.338 37.3351 200.45 37.0991 200.642C36.8831 200.81 36.7211 201.012 36.6131 201.248C36.5051 201.48 36.4331 201.728 36.3971 201.992C36.3611 202.252 36.3431 202.51 36.3431 202.766V206H35.4611ZM39.9053 198.29V197.3H40.7873V198.29H39.9053ZM39.9053 206V199.52H40.7873V206H39.9053ZM50.3141 206L50.3201 201.746C50.3201 201.246 50.1801 200.854 49.9001 200.57C49.6241 200.282 49.2721 200.138 48.8441 200.138C48.6001 200.138 48.3621 200.194 48.1301 200.306C47.8981 200.418 47.7061 200.598 47.5541 200.846C47.4061 201.094 47.3321 201.418 47.3321 201.818L46.8101 201.668C46.7981 201.204 46.8881 200.798 47.0801 200.45C47.2761 200.102 47.5441 199.832 47.8841 199.64C48.2281 199.444 48.6161 199.346 49.0481 199.346C49.7001 199.346 50.2221 199.548 50.6141 199.952C51.0061 200.352 51.2021 200.894 51.2021 201.578L51.1961 206H50.3141ZM42.5801 206V199.52H43.3721V201.116H43.4681V206H42.5801ZM46.4561 206L46.4621 201.806C46.4621 201.29 46.3241 200.884 46.0481 200.588C45.7761 200.288 45.4161 200.138 44.9681 200.138C44.5201 200.138 44.1581 200.292 43.8821 200.6C43.6061 200.904 43.4681 201.31 43.4681 201.818L42.9401 201.53C42.9401 201.114 43.0381 200.742 43.2341 200.414C43.4301 200.082 43.6981 199.822 44.0381 199.634C44.3781 199.442 44.7641 199.346 45.1961 199.346C45.6081 199.346 45.9741 199.434 46.2941 199.61C46.6181 199.786 46.8721 200.042 47.0561 200.378C47.2401 200.714 47.3321 201.122 47.3321 201.602L47.3261 206H46.4561ZM54.612 206.18C54.124 206.18 53.714 206.092 53.382 205.916C53.054 205.74 52.808 205.506 52.644 205.214C52.48 204.922 52.398 204.604 52.398 204.26C52.398 203.908 52.468 203.608 52.608 203.36C52.752 203.108 52.946 202.902 53.19 202.742C53.438 202.582 53.724 202.46 54.048 202.376C54.376 202.296 54.738 202.226 55.134 202.166C55.534 202.102 55.924 202.048 56.304 202.004C56.688 201.956 57.024 201.91 57.312 201.866L57 202.058C57.012 201.418 56.888 200.944 56.628 200.636C56.368 200.328 55.916 200.174 55.272 200.174C54.828 200.174 54.452 200.274 54.144 200.474C53.84 200.674 53.626 200.99 53.502 201.422L52.644 201.17C52.792 200.59 53.09 200.14 53.538 199.82C53.986 199.5 54.568 199.34 55.284 199.34C55.876 199.34 56.378 199.452 56.79 199.676C57.206 199.896 57.5 200.216 57.672 200.636C57.752 200.824 57.804 201.034 57.828 201.266C57.852 201.498 57.864 201.734 57.864 201.974V206H57.078V204.374L57.306 204.47C57.086 205.026 56.744 205.45 56.28 205.742C55.816 206.034 55.26 206.18 54.612 206.18ZM54.714 205.418C55.126 205.418 55.486 205.344 55.794 205.196C56.102 205.048 56.35 204.846 56.538 204.59C56.726 204.33 56.848 204.038 56.904 203.714C56.952 203.506 56.978 203.278 56.982 203.03C56.986 202.778 56.988 202.59 56.988 202.466L57.324 202.64C57.024 202.68 56.698 202.72 56.346 202.76C55.998 202.8 55.654 202.846 55.314 202.898C54.978 202.95 54.674 203.012 54.402 203.084C54.218 203.136 54.04 203.21 53.868 203.306C53.696 203.398 53.554 203.522 53.442 203.678C53.334 203.834 53.28 204.028 53.28 204.26C53.28 204.448 53.326 204.63 53.418 204.806C53.514 204.982 53.666 205.128 53.874 205.244C54.086 205.36 54.366 205.418 54.714 205.418ZM59.4259 206V199.52H60.2179V201.08L60.0619 200.876C60.1339 200.684 60.2279 200.508 60.3439 200.348C60.4599 200.184 60.5859 200.05 60.7219 199.946C60.8899 199.798 61.0859 199.686 61.3099 199.61C61.5339 199.53 61.7599 199.484 61.9879 199.472C62.2159 199.456 62.4239 199.472 62.6119 199.52V200.348C62.3759 200.288 62.1179 200.274 61.8379 200.306C61.5579 200.338 61.2999 200.45 61.0639 200.642C60.8479 200.81 60.6859 201.012 60.5779 201.248C60.4699 201.48 60.3979 201.728 60.3619 201.992C60.3259 202.252 60.3079 202.51 60.3079 202.766V206H59.4259ZM64.5921 208.88L65.8461 205.478L65.8641 206.486L63.0261 199.52H63.9621L66.2901 205.346H65.9061L68.0541 199.52H68.9541L65.4741 208.88H64.5921ZM69.8763 202.598V201.842H74.9163V202.598H69.8763ZM76.3567 202.598V201.842H79.9567V202.598H76.3567ZM84.3598 197.186C84.9038 197.186 85.3958 197.318 85.8358 197.582C86.2798 197.842 86.6318 198.198 86.8918 198.65C87.1518 199.098 87.2818 199.602 87.2818 200.162V203.162C87.2818 203.738 87.1518 204.254 86.8918 204.71C86.6318 205.166 86.2758 205.526 85.8238 205.79C85.3758 206.05 84.8658 206.18 84.2938 206.18C83.8018 206.18 83.3458 206.072 82.9258 205.856C82.5098 205.636 82.1658 205.334 81.8938 204.95L82.5658 204.392C82.7498 204.676 82.9938 204.904 83.2978 205.076C83.6058 205.248 83.9378 205.334 84.2938 205.334C84.7018 205.334 85.0618 205.238 85.3738 205.046C85.6898 204.85 85.9378 204.594 86.1178 204.278C86.3018 203.958 86.3938 203.612 86.3938 203.24V201.356L86.6098 201.608C86.3618 202.004 86.0318 202.324 85.6198 202.568C85.2118 202.812 84.7638 202.934 84.2758 202.934C83.7438 202.934 83.2618 202.806 82.8298 202.55C82.4018 202.294 82.0618 201.95 81.8098 201.518C81.5618 201.086 81.4378 200.604 81.4378 200.072C81.4378 199.54 81.5698 199.056 81.8338 198.62C82.0978 198.18 82.4518 197.832 82.8958 197.576C83.3398 197.316 83.8278 197.186 84.3598 197.186ZM84.3598 198.038C83.9838 198.038 83.6418 198.13 83.3338 198.314C83.0258 198.494 82.7798 198.738 82.5958 199.046C82.4158 199.354 82.3258 199.696 82.3258 200.072C82.3258 200.448 82.4158 200.79 82.5958 201.098C82.7758 201.406 83.0198 201.652 83.3278 201.836C83.6358 202.016 83.9778 202.106 84.3538 202.106C84.7298 202.106 85.0718 202.016 85.3798 201.836C85.6918 201.652 85.9378 201.406 86.1178 201.098C86.3018 200.79 86.3938 200.448 86.3938 200.072C86.3938 199.7 86.3018 199.36 86.1178 199.052C85.9378 198.744 85.6938 198.498 85.3858 198.314C85.0778 198.13 84.7358 198.038 84.3598 198.038ZM91.7772 206.18C91.2452 206.18 90.7652 206.056 90.3372 205.808C89.9132 205.56 89.5772 205.224 89.3292 204.8C89.0812 204.372 88.9572 203.892 88.9572 203.36V200C88.9572 199.468 89.0812 198.99 89.3292 198.566C89.5772 198.138 89.9132 197.8 90.3372 197.552C90.7652 197.304 91.2452 197.18 91.7772 197.18C92.3092 197.18 92.7872 197.304 93.2112 197.552C93.6392 197.8 93.9772 198.138 94.2252 198.566C94.4732 198.99 94.5972 199.468 94.5972 200V203.36C94.5972 203.892 94.4732 204.372 94.2252 204.8C93.9772 205.224 93.6392 205.56 93.2112 205.808C92.7872 206.056 92.3092 206.18 91.7772 206.18ZM91.7772 205.328C92.1332 205.328 92.4572 205.242 92.7492 205.07C93.0412 204.894 93.2732 204.66 93.4452 204.368C93.6172 204.076 93.7032 203.754 93.7032 203.402V199.958C93.7032 199.602 93.6172 199.278 93.4452 198.986C93.2732 198.694 93.0412 198.462 92.7492 198.29C92.4572 198.114 92.1332 198.026 91.7772 198.026C91.4212 198.026 91.0972 198.114 90.8052 198.29C90.5132 198.462 90.2812 198.694 90.1092 198.986C89.9372 199.278 89.8512 199.602 89.8512 199.958V203.402C89.8512 203.754 89.9372 204.076 90.1092 204.368C90.2812 204.66 90.5132 204.894 90.8052 205.07C91.0972 205.242 91.4212 205.328 91.7772 205.328ZM99.1014 206.18C98.5694 206.18 98.0894 206.056 97.6614 205.808C97.2374 205.56 96.9014 205.224 96.6534 204.8C96.4054 204.372 96.2814 203.892 96.2814 203.36V200C96.2814 199.468 96.4054 198.99 96.6534 198.566C96.9014 198.138 97.2374 197.8 97.6614 197.552C98.0894 197.304 98.5694 197.18 99.1014 197.18C99.6334 197.18 100.111 197.304 100.535 197.552C100.963 197.8 101.301 198.138 101.549 198.566C101.797 198.99 101.921 199.468 101.921 200V203.36C101.921 203.892 101.797 204.372 101.549 204.8C101.301 205.224 100.963 205.56 100.535 205.808C100.111 206.056 99.6334 206.18 99.1014 206.18ZM99.1014 205.328C99.4574 205.328 99.7814 205.242 100.073 205.07C100.365 204.894 100.597 204.66 100.769 204.368C100.941 204.076 101.027 203.754 101.027 203.402V199.958C101.027 199.602 100.941 199.278 100.769 198.986C100.597 198.694 100.365 198.462 100.073 198.29C99.7814 198.114 99.4574 198.026 99.1014 198.026C98.7454 198.026 98.4214 198.114 98.1294 198.29C97.8374 198.462 97.6054 198.694 97.4334 198.986C97.2614 199.278 97.1754 199.602 97.1754 199.958V203.402C97.1754 203.754 97.2614 204.076 97.4334 204.368C97.6054 204.66 97.8374 204.894 98.1294 205.07C98.4214 205.242 98.7454 205.328 99.1014 205.328Z" fill="#111111"/>
<rect x="219" y="178.5" width="77" height="24" rx="12" fill="white"/>
<path d="M233.334 195.494L233.982 193.064H231.72L232.038 191.87H234.306L234.72 190.292H232.458L232.782 189.11H235.038L235.644 186.86H236.874L236.268 189.11H237.918L238.524 186.86H239.754L239.148 189.11H241.41L241.098 190.292H238.83L238.404 191.87H240.666L240.354 193.064H238.086L237.438 195.494H236.214L236.856 193.064H235.206L234.558 195.494H233.334ZM235.53 191.87H237.174L237.6 190.292H235.95L235.53 191.87ZM245.739 195.68C245.175 195.68 244.675 195.568 244.239 195.344C243.807 195.116 243.467 194.8 243.219 194.396C242.975 193.992 242.853 193.524 242.853 192.992C242.853 192.496 242.969 192.042 243.201 191.63C243.433 191.218 243.779 190.894 244.239 190.658L244.215 191.09C243.847 190.862 243.563 190.578 243.363 190.238C243.167 189.894 243.069 189.51 243.069 189.086C243.069 188.594 243.183 188.168 243.411 187.808C243.639 187.448 243.953 187.17 244.353 186.974C244.757 186.778 245.219 186.68 245.739 186.68C246.259 186.68 246.719 186.778 247.119 186.974C247.519 187.17 247.833 187.448 248.061 187.808C248.289 188.168 248.403 188.594 248.403 189.086C248.403 189.51 248.309 189.892 248.121 190.232C247.933 190.572 247.645 190.858 247.257 191.09L247.239 190.67C247.695 190.894 248.041 191.214 248.277 191.63C248.513 192.042 248.631 192.496 248.631 192.992C248.631 193.524 248.507 193.992 248.259 194.396C248.011 194.8 247.669 195.116 247.233 195.344C246.797 195.568 246.299 195.68 245.739 195.68ZM245.739 194.486C246.203 194.486 246.579 194.36 246.867 194.108C247.155 193.852 247.299 193.48 247.299 192.992C247.299 192.504 247.155 192.132 246.867 191.876C246.583 191.616 246.207 191.486 245.739 191.486C245.271 191.486 244.893 191.616 244.605 191.876C244.321 192.132 244.179 192.504 244.179 192.992C244.179 193.48 244.323 193.852 244.611 194.108C244.899 194.36 245.275 194.486 245.739 194.486ZM245.739 190.286C246.135 190.286 246.455 190.188 246.699 189.992C246.947 189.792 247.071 189.49 247.071 189.086C247.071 188.682 246.947 188.38 246.699 188.18C246.455 187.976 246.135 187.874 245.739 187.874C245.343 187.874 245.021 187.976 244.773 188.18C244.525 188.38 244.401 188.682 244.401 189.086C244.401 189.49 244.525 189.792 244.773 189.992C245.021 190.188 245.343 190.286 245.739 190.286ZM250.192 195.5V186.86H255.31V188.114H251.446V190.55H254.59V191.81H251.446V195.5H250.192ZM256.151 195.494L256.157 194.378L259.919 191.006C260.223 190.738 260.429 190.482 260.537 190.238C260.649 189.994 260.705 189.75 260.705 189.506C260.705 189.198 260.637 188.922 260.501 188.678C260.365 188.43 260.177 188.234 259.937 188.09C259.697 187.946 259.421 187.874 259.109 187.874C258.789 187.874 258.503 187.95 258.251 188.102C258.003 188.25 257.809 188.448 257.669 188.696C257.529 188.944 257.461 189.212 257.465 189.5H256.181C256.181 188.94 256.307 188.45 256.559 188.03C256.815 187.606 257.165 187.276 257.609 187.04C258.053 186.8 258.561 186.68 259.133 186.68C259.677 186.68 260.165 186.804 260.597 187.052C261.029 187.296 261.369 187.632 261.617 188.06C261.869 188.488 261.995 188.976 261.995 189.524C261.995 189.92 261.943 190.256 261.839 190.532C261.735 190.808 261.579 191.064 261.371 191.3C261.163 191.536 260.903 191.792 260.591 192.068L257.687 194.66L257.549 194.3H261.995V195.494H256.151ZM265.852 195.662C265.424 195.662 265.022 195.582 264.646 195.422C264.27 195.258 263.944 195.026 263.668 194.726C263.396 194.426 263.198 194.072 263.074 193.664L264.286 193.328C264.402 193.7 264.604 193.986 264.892 194.186C265.18 194.382 265.5 194.478 265.852 194.474C266.168 194.47 266.446 194.396 266.686 194.252C266.926 194.108 267.114 193.914 267.25 193.67C267.386 193.422 267.454 193.138 267.454 192.818C267.454 192.338 267.304 191.942 267.004 191.63C266.708 191.318 266.32 191.162 265.84 191.162C265.704 191.162 265.564 191.182 265.42 191.222C265.28 191.262 265.148 191.314 265.024 191.378L264.436 190.388L267.484 187.694L267.616 188.054H263.416V186.86H268.612V188.054L266.08 190.49L266.068 190.082C266.612 190.082 267.084 190.204 267.484 190.448C267.884 190.688 268.192 191.016 268.408 191.432C268.628 191.844 268.738 192.306 268.738 192.818C268.738 193.37 268.608 193.86 268.348 194.288C268.092 194.716 267.746 195.052 267.31 195.296C266.878 195.54 266.392 195.662 265.852 195.662ZM270.301 195.5V186.86H275.419V188.114H271.555V190.55H274.699V191.81H271.555V195.5H270.301ZM275.783 195.5L278.591 186.86H280.397L283.205 195.5H281.903L279.317 187.616H279.641L277.085 195.5H275.783ZM277.241 193.55V192.374H281.753V193.55H277.241Z" fill="black"/>
</svg>
