<svg width="312" height="225" viewBox="0 0 312 225" fill="none" xmlns="http://www.w3.org/2000/svg">
<rect width="312" height="225" rx="16" fill="#F3F3F4"/>
<g opacity="0.7">
<path d="M16.98 31V20.92H18.667V25.162H23.441V20.92H25.121V31H23.441V26.744H18.667V31H16.98ZM30.5205 31.21C29.7552 31.21 29.0832 31.0443 28.5045 30.713C27.9258 30.3817 27.4732 29.922 27.1465 29.334C26.8245 28.746 26.6635 28.0693 26.6635 27.304C26.6635 26.478 26.8222 25.7617 27.1395 25.155C27.4568 24.5437 27.8978 24.07 28.4625 23.734C29.0272 23.398 29.6805 23.23 30.4225 23.23C31.2065 23.23 31.8715 23.4143 32.4175 23.783C32.9682 24.147 33.3765 24.6627 33.6425 25.33C33.9085 25.9973 34.0088 26.7837 33.9435 27.689H32.2705V27.073C32.2658 26.2517 32.1212 25.652 31.8365 25.274C31.5518 24.896 31.1038 24.707 30.4925 24.707C29.8018 24.707 29.2885 24.9217 28.9525 25.351C28.6165 25.7757 28.4485 26.3987 28.4485 27.22C28.4485 27.9853 28.6165 28.578 28.9525 28.998C29.2885 29.418 29.7785 29.628 30.4225 29.628C30.8378 29.628 31.1948 29.537 31.4935 29.355C31.7968 29.1683 32.0302 28.9 32.1935 28.55L33.8595 29.054C33.5702 29.7353 33.1222 30.265 32.5155 30.643C31.9135 31.021 31.2485 31.21 30.5205 31.21ZM27.9165 27.689V26.415H33.1175V27.689H27.9165ZM37.4827 31.21C36.9367 31.21 36.4747 31.1073 36.0967 30.902C35.7187 30.692 35.4317 30.4143 35.2357 30.069C35.0443 29.7237 34.9487 29.3433 34.9487 28.928C34.9487 28.564 35.0093 28.2373 35.1307 27.948C35.252 27.654 35.4387 27.402 35.6907 27.192C35.9427 26.9773 36.2693 26.8023 36.6707 26.667C36.974 26.569 37.3287 26.4803 37.7347 26.401C38.1453 26.3217 38.5887 26.2493 39.0647 26.184C39.5453 26.114 40.047 26.0393 40.5697 25.96L39.9677 26.303C39.9723 25.7803 39.8557 25.3953 39.6177 25.148C39.3797 24.9007 38.9783 24.777 38.4137 24.777C38.073 24.777 37.744 24.8563 37.4267 25.015C37.1093 25.1737 36.8877 25.4467 36.7617 25.834L35.2217 25.351C35.4083 24.7117 35.763 24.1983 36.2857 23.811C36.813 23.4237 37.5223 23.23 38.4137 23.23C39.0857 23.23 39.676 23.3397 40.1847 23.559C40.698 23.7783 41.0783 24.1377 41.3257 24.637C41.461 24.903 41.5427 25.176 41.5707 25.456C41.5987 25.7313 41.6127 26.0323 41.6127 26.359V31H40.1357V29.362L40.3807 29.628C40.04 30.174 39.641 30.5753 39.1837 30.832C38.731 31.084 38.164 31.21 37.4827 31.21ZM37.8187 29.866C38.2013 29.866 38.528 29.7983 38.7987 29.663C39.0693 29.5277 39.284 29.362 39.4427 29.166C39.606 28.97 39.7157 28.7857 39.7717 28.613C39.8603 28.3983 39.9093 28.1533 39.9187 27.878C39.9327 27.598 39.9397 27.3717 39.9397 27.199L40.4577 27.353C39.949 27.4323 39.5127 27.5023 39.1487 27.563C38.7847 27.6237 38.472 27.682 38.2107 27.738C37.9493 27.7893 37.7183 27.8477 37.5177 27.913C37.3217 27.983 37.156 28.0647 37.0207 28.158C36.8853 28.2513 36.7803 28.3587 36.7057 28.48C36.6357 28.6013 36.6007 28.7437 36.6007 28.907C36.6007 29.0937 36.6473 29.2593 36.7407 29.404C36.834 29.544 36.9693 29.656 37.1467 29.74C37.3287 29.824 37.5527 29.866 37.8187 29.866ZM46.4661 31.21C45.7707 31.21 45.1641 31.035 44.6461 30.685C44.1281 30.335 43.7267 29.859 43.4421 29.257C43.1574 28.655 43.0151 27.976 43.0151 27.22C43.0151 26.4547 43.1574 25.7733 43.4421 25.176C43.7314 24.574 44.1397 24.1003 44.6671 23.755C45.1944 23.405 45.8151 23.23 46.5291 23.23C47.2477 23.23 47.8497 23.405 48.3351 23.755C48.8251 24.1003 49.1961 24.574 49.4481 25.176C49.7001 25.778 49.8261 26.4593 49.8261 27.22C49.8261 27.9713 49.7001 28.6503 49.4481 29.257C49.1961 29.859 48.8204 30.335 48.3211 30.685C47.8217 31.035 47.2034 31.21 46.4661 31.21ZM46.7251 29.698C47.1777 29.698 47.5417 29.5953 47.8171 29.39C48.0971 29.18 48.3001 28.8883 48.4261 28.515C48.5567 28.1417 48.6221 27.71 48.6221 27.22C48.6221 26.7253 48.5567 26.2937 48.4261 25.925C48.3001 25.5517 48.1017 25.2623 47.8311 25.057C47.5604 24.847 47.2104 24.742 46.7811 24.742C46.3284 24.742 45.9551 24.854 45.6611 25.078C45.3671 25.2973 45.1501 25.596 45.0101 25.974C44.8701 26.3473 44.8001 26.7627 44.8001 27.22C44.8001 27.682 44.8677 28.102 45.0031 28.48C45.1431 28.8533 45.3554 29.1497 45.6401 29.369C45.9247 29.5883 46.2864 29.698 46.7251 29.698ZM48.6221 31V25.694H48.4121V20.92H50.1131V31H48.6221ZM52.2157 22.292V20.745H53.9027V22.292H52.2157ZM52.2157 31V23.44H53.9027V31H52.2157ZM61.2285 31V27.36C61.2285 27.122 61.2122 26.8583 61.1795 26.569C61.1469 26.2797 61.0699 26.002 60.9485 25.736C60.8319 25.4653 60.6545 25.2437 60.4165 25.071C60.1832 24.8983 59.8659 24.812 59.4645 24.812C59.2499 24.812 59.0375 24.847 58.8275 24.917C58.6175 24.987 58.4262 25.1083 58.2535 25.281C58.0855 25.449 57.9502 25.6823 57.8475 25.981C57.7449 26.275 57.6935 26.653 57.6935 27.115L56.6925 26.688C56.6925 26.044 56.8162 25.4607 57.0635 24.938C57.3155 24.4153 57.6842 24 58.1695 23.692C58.6549 23.3793 59.2522 23.223 59.9615 23.223C60.5215 23.223 60.9835 23.3163 61.3475 23.503C61.7115 23.6897 62.0009 23.9277 62.2155 24.217C62.4302 24.5063 62.5889 24.8143 62.6915 25.141C62.7942 25.4677 62.8595 25.778 62.8875 26.072C62.9202 26.3613 62.9365 26.597 62.9365 26.779V31H61.2285ZM55.9855 31V23.44H57.4905V25.785H57.6935V31H55.9855ZM67.9412 34.57C67.5212 34.57 67.1175 34.5047 66.7302 34.374C66.3475 34.2433 66.0022 34.0543 65.6942 33.807C65.3862 33.5643 65.1342 33.2703 64.9382 32.925L66.4922 32.155C66.6369 32.4303 66.8399 32.6333 67.1012 32.764C67.3672 32.8993 67.6495 32.967 67.9482 32.967C68.2982 32.967 68.6109 32.904 68.8862 32.778C69.1615 32.6567 69.3739 32.4747 69.5232 32.232C69.6772 31.994 69.7495 31.6953 69.7402 31.336V29.187H69.9502V23.44H71.4272V31.364C71.4272 31.5553 71.4179 31.7373 71.3992 31.91C71.3852 32.0873 71.3595 32.26 71.3222 32.428C71.2102 32.918 70.9955 33.3193 70.6782 33.632C70.3609 33.9493 69.9665 34.185 69.4952 34.339C69.0285 34.493 68.5105 34.57 67.9412 34.57ZM67.7942 31.21C67.0989 31.21 66.4922 31.035 65.9742 30.685C65.4562 30.335 65.0549 29.859 64.7702 29.257C64.4855 28.655 64.3432 27.976 64.3432 27.22C64.3432 26.4547 64.4855 25.7733 64.7702 25.176C65.0595 24.574 65.4679 24.1003 65.9952 23.755C66.5225 23.405 67.1432 23.23 67.8572 23.23C68.5759 23.23 69.1779 23.405 69.6632 23.755C70.1532 24.1003 70.5242 24.574 70.7762 25.176C71.0282 25.778 71.1542 26.4593 71.1542 27.22C71.1542 27.9713 71.0282 28.6503 70.7762 29.257C70.5242 29.859 70.1485 30.335 69.6492 30.685C69.1499 31.035 68.5315 31.21 67.7942 31.21ZM68.0532 29.698C68.5059 29.698 68.8699 29.5953 69.1452 29.39C69.4252 29.18 69.6282 28.8883 69.7542 28.515C69.8849 28.1417 69.9502 27.71 69.9502 27.22C69.9502 26.7253 69.8849 26.2937 69.7542 25.925C69.6282 25.5517 69.4299 25.2623 69.1592 25.057C68.8885 24.847 68.5385 24.742 68.1092 24.742C67.6565 24.742 67.2832 24.854 66.9892 25.078C66.6952 25.2973 66.4782 25.596 66.3382 25.974C66.1982 26.3473 66.1282 26.7627 66.1282 27.22C66.1282 27.682 66.1959 28.102 66.3312 28.48C66.4712 28.8533 66.6835 29.1497 66.9682 29.369C67.2529 29.5883 67.6145 29.698 68.0532 29.698ZM77.9429 31V22.761L76.0529 23.916V22.054L77.9429 20.92H79.6649V31H77.9429Z" fill="#111111"/>
<path d="M236.98 31V20.92H238.499L241.985 28.06L245.471 20.92H246.99V31H245.415V24.539L242.321 31H241.649L238.562 24.539V31H236.98ZM251.071 31.21C250.525 31.21 250.063 31.1073 249.685 30.902C249.307 30.692 249.02 30.4143 248.824 30.069C248.632 29.7237 248.537 29.3433 248.537 28.928C248.537 28.564 248.597 28.2373 248.719 27.948C248.84 27.654 249.027 27.402 249.279 27.192C249.531 26.9773 249.857 26.8023 250.259 26.667C250.562 26.569 250.917 26.4803 251.323 26.401C251.733 26.3217 252.177 26.2493 252.653 26.184C253.133 26.114 253.635 26.0393 254.158 25.96L253.556 26.303C253.56 25.7803 253.444 25.3953 253.206 25.148C252.968 24.9007 252.566 24.777 252.002 24.777C251.661 24.777 251.332 24.8563 251.015 25.015C250.697 25.1737 250.476 25.4467 250.35 25.834L248.81 25.351C248.996 24.7117 249.351 24.1983 249.874 23.811C250.401 23.4237 251.11 23.23 252.002 23.23C252.674 23.23 253.264 23.3397 253.773 23.559C254.286 23.7783 254.666 24.1377 254.914 24.637C255.049 24.903 255.131 25.176 255.159 25.456C255.187 25.7313 255.201 26.0323 255.201 26.359V31H253.724V29.362L253.969 29.628C253.628 30.174 253.229 30.5753 252.772 30.832C252.319 31.084 251.752 31.21 251.071 31.21ZM251.407 29.866C251.789 29.866 252.116 29.7983 252.387 29.663C252.657 29.5277 252.872 29.362 253.031 29.166C253.194 28.97 253.304 28.7857 253.36 28.613C253.448 28.3983 253.497 28.1533 253.507 27.878C253.521 27.598 253.528 27.3717 253.528 27.199L254.046 27.353C253.537 27.4323 253.101 27.5023 252.737 27.563C252.373 27.6237 252.06 27.682 251.799 27.738C251.537 27.7893 251.306 27.8477 251.106 27.913C250.91 27.983 250.744 28.0647 250.609 28.158C250.473 28.2513 250.368 28.3587 250.294 28.48C250.224 28.6013 250.189 28.7437 250.189 28.907C250.189 29.0937 250.235 29.2593 250.329 29.404C250.422 29.544 250.557 29.656 250.735 29.74C250.917 29.824 251.141 29.866 251.407 29.866ZM262.252 31V27.36C262.252 27.122 262.236 26.8583 262.203 26.569C262.17 26.2797 262.093 26.002 261.972 25.736C261.855 25.4653 261.678 25.2437 261.44 25.071C261.207 24.8983 260.889 24.812 260.488 24.812C260.273 24.812 260.061 24.847 259.851 24.917C259.641 24.987 259.45 25.1083 259.277 25.281C259.109 25.449 258.974 25.6823 258.871 25.981C258.768 26.275 258.717 26.653 258.717 27.115L257.716 26.688C257.716 26.044 257.84 25.4607 258.087 24.938C258.339 24.4153 258.708 24 259.193 23.692C259.678 23.3793 260.276 23.223 260.985 23.223C261.545 23.223 262.007 23.3163 262.371 23.503C262.735 23.6897 263.024 23.9277 263.239 24.217C263.454 24.5063 263.612 24.8143 263.715 25.141C263.818 25.4677 263.883 25.778 263.911 26.072C263.944 26.3613 263.96 26.597 263.96 26.779V31H262.252ZM257.009 31V23.44H258.514V25.785H258.717V31H257.009ZM265.787 31V23.44H267.278V25.281L267.096 25.043C267.189 24.791 267.313 24.5623 267.467 24.357C267.625 24.147 267.814 23.9743 268.034 23.839C268.22 23.713 268.426 23.615 268.65 23.545C268.878 23.4703 269.112 23.426 269.35 23.412C269.588 23.3933 269.819 23.4027 270.043 23.44V25.015C269.819 24.9497 269.56 24.9287 269.266 24.952C268.976 24.9753 268.715 25.057 268.482 25.197C268.248 25.323 268.057 25.484 267.908 25.68C267.763 25.876 267.656 26.1 267.586 26.352C267.516 26.5993 267.481 26.8677 267.481 27.157V31H265.787ZM274.581 31.21C273.825 31.21 273.164 31.0397 272.6 30.699C272.035 30.3583 271.596 29.8893 271.284 29.292C270.976 28.69 270.822 27.9993 270.822 27.22C270.822 26.4267 270.98 25.7313 271.298 25.134C271.615 24.5367 272.056 24.07 272.621 23.734C273.185 23.398 273.839 23.23 274.581 23.23C275.341 23.23 276.004 23.4003 276.569 23.741C277.133 24.0817 277.572 24.553 277.885 25.155C278.197 25.7523 278.354 26.4407 278.354 27.22C278.354 28.004 278.195 28.697 277.878 29.299C277.565 29.8963 277.126 30.3653 276.562 30.706C275.997 31.042 275.337 31.21 274.581 31.21ZM274.581 29.628C275.253 29.628 275.752 29.404 276.079 28.956C276.405 28.508 276.569 27.9293 276.569 27.22C276.569 26.4873 276.403 25.904 276.072 25.47C275.74 25.0313 275.243 24.812 274.581 24.812C274.128 24.812 273.755 24.9147 273.461 25.12C273.171 25.3207 272.957 25.603 272.817 25.967C272.677 26.3263 272.607 26.744 272.607 27.22C272.607 27.9527 272.772 28.5383 273.104 28.977C273.44 29.411 273.932 29.628 274.581 29.628ZM283.529 31.21C282.792 31.21 282.173 31.035 281.674 30.685C281.175 30.335 280.799 29.859 280.547 29.257C280.295 28.6503 280.169 27.9713 280.169 27.22C280.169 26.4593 280.295 25.778 280.547 25.176C280.799 24.574 281.168 24.1003 281.653 23.755C282.143 23.405 282.747 23.23 283.466 23.23C284.18 23.23 284.798 23.405 285.321 23.755C285.848 24.1003 286.257 24.574 286.546 25.176C286.835 25.7733 286.98 26.4547 286.98 27.22C286.98 27.976 286.838 28.655 286.553 29.257C286.268 29.859 285.867 30.335 285.349 30.685C284.831 31.035 284.224 31.21 283.529 31.21ZM279.882 34.36V23.44H281.373V28.746H281.583V34.36H279.882ZM283.27 29.698C283.709 29.698 284.07 29.5883 284.355 29.369C284.64 29.1497 284.85 28.8533 284.985 28.48C285.125 28.102 285.195 27.682 285.195 27.22C285.195 26.7627 285.125 26.3473 284.985 25.974C284.845 25.596 284.628 25.2973 284.334 25.078C284.04 24.854 283.667 24.742 283.214 24.742C282.785 24.742 282.435 24.847 282.164 25.057C281.893 25.2623 281.693 25.5517 281.562 25.925C281.436 26.2937 281.373 26.7253 281.373 27.22C281.373 27.71 281.436 28.1417 281.562 28.515C281.693 28.8883 281.896 29.18 282.171 29.39C282.451 29.5953 282.817 29.698 283.27 29.698ZM291.96 31.21C291.195 31.21 290.523 31.0443 289.944 30.713C289.365 30.3817 288.913 29.922 288.586 29.334C288.264 28.746 288.103 28.0693 288.103 27.304C288.103 26.478 288.262 25.7617 288.579 25.155C288.896 24.5437 289.337 24.07 289.902 23.734C290.467 23.398 291.12 23.23 291.862 23.23C292.646 23.23 293.311 23.4143 293.857 23.783C294.408 24.147 294.816 24.6627 295.082 25.33C295.348 25.9973 295.448 26.7837 295.383 27.689H293.71V27.073C293.705 26.2517 293.561 25.652 293.276 25.274C292.991 24.896 292.543 24.707 291.932 24.707C291.241 24.707 290.728 24.9217 290.392 25.351C290.056 25.7757 289.888 26.3987 289.888 27.22C289.888 27.9853 290.056 28.578 290.392 28.998C290.728 29.418 291.218 29.628 291.862 29.628C292.277 29.628 292.634 29.537 292.933 29.355C293.236 29.1683 293.47 28.9 293.633 28.55L295.299 29.054C295.01 29.7353 294.562 30.265 293.955 30.643C293.353 31.021 292.688 31.21 291.96 31.21ZM289.356 27.689V26.415H294.557V27.689H289.356Z" fill="#111111"/>
</g>
<path d="M217.468 134.5L231.996 88.42H243.292L257.82 134.5H249.884L236.7 93.156H238.428L225.404 134.5H217.468ZM225.564 124.516V117.316H249.756V124.516H225.564ZM273.269 135.46C270.773 135.46 268.661 134.991 266.933 134.052C265.205 133.092 263.893 131.823 262.997 130.244C262.122 128.665 261.685 126.927 261.685 125.028C261.685 123.364 261.962 121.871 262.517 120.548C263.072 119.204 263.925 118.052 265.077 117.092C266.229 116.111 267.722 115.311 269.557 114.692C270.944 114.244 272.565 113.839 274.421 113.476C276.298 113.113 278.325 112.783 280.501 112.484C282.698 112.164 284.992 111.823 287.381 111.46L284.629 113.028C284.65 110.639 284.117 108.879 283.029 107.748C281.941 106.617 280.106 106.052 277.525 106.052C275.968 106.052 274.464 106.415 273.013 107.14C271.562 107.865 270.549 109.113 269.973 110.884L262.933 108.676C263.786 105.753 265.408 103.407 267.797 101.636C270.208 99.8653 273.45 98.98 277.525 98.98C280.597 98.98 283.296 99.4813 285.621 100.484C287.968 101.487 289.706 103.129 290.837 105.412C291.456 106.628 291.829 107.876 291.957 109.156C292.085 110.415 292.149 111.791 292.149 113.284V134.5H285.397V127.012L286.517 128.228C284.96 130.724 283.136 132.559 281.045 133.732C278.976 134.884 276.384 135.46 273.269 135.46ZM274.805 129.316C276.554 129.316 278.048 129.007 279.285 128.388C280.522 127.769 281.504 127.012 282.229 126.116C282.976 125.22 283.477 124.377 283.733 123.588C284.138 122.607 284.362 121.487 284.405 120.228C284.469 118.948 284.501 117.913 284.501 117.124L286.869 117.828C284.544 118.191 282.549 118.511 280.885 118.788C279.221 119.065 277.792 119.332 276.597 119.588C275.402 119.823 274.346 120.089 273.429 120.388C272.533 120.708 271.776 121.081 271.157 121.508C270.538 121.935 270.058 122.425 269.717 122.98C269.397 123.535 269.237 124.185 269.237 124.932C269.237 125.785 269.45 126.543 269.877 127.204C270.304 127.844 270.922 128.356 271.733 128.74C272.565 129.124 273.589 129.316 274.805 129.316Z" fill="#111111"/>
<rect x="16" y="185" width="90.6667" height="24" rx="12" fill="white"/>
<g clip-path="url(#clip0_435_10125)">
<path d="M46.3335 203V199H44.3335V197H50.3335V199H48.3335V203M40.3335 193H36.3335V191H46.3335V193H42.3335V203H40.3335" fill="black"/>
</g>
<path d="M60.1015 201.192C59.0535 201.192 58.2535 200.852 57.7015 200.172C57.1575 199.492 56.8855 198.536 56.8855 197.304C56.8855 196.592 56.9535 195.932 57.0895 195.324C57.2255 194.716 57.4335 194.184 57.7135 193.728C57.9935 193.272 58.3575 192.92 58.8055 192.672C59.2535 192.416 59.7895 192.288 60.4135 192.288C61.2135 192.288 61.8455 192.484 62.3095 192.876C62.7735 193.268 63.0855 193.792 63.2455 194.448L61.7575 194.568C61.6615 194.272 61.5095 194.044 61.3015 193.884C61.1015 193.716 60.8015 193.632 60.4015 193.632C59.8495 193.632 59.4015 193.848 59.0575 194.28C58.7215 194.712 58.5135 195.372 58.4335 196.26C58.6255 196.004 58.8895 195.792 59.2255 195.624C59.5615 195.448 59.9615 195.36 60.4255 195.36C60.9935 195.36 61.4935 195.48 61.9255 195.72C62.3575 195.952 62.6895 196.28 62.9215 196.704C63.1615 197.128 63.2815 197.624 63.2815 198.192C63.2815 198.824 63.1455 199.364 62.8735 199.812C62.6095 200.26 62.2375 200.604 61.7575 200.844C61.2855 201.076 60.7335 201.192 60.1015 201.192ZM60.1015 199.884C60.5815 199.884 60.9695 199.736 61.2655 199.44C61.5695 199.136 61.7215 198.72 61.7215 198.192C61.7215 197.704 61.5775 197.312 61.2895 197.016C61.0015 196.712 60.6295 196.56 60.1735 196.56C59.6855 196.56 59.2815 196.708 58.9615 197.004C58.6415 197.3 58.4815 197.696 58.4815 198.192C58.4815 198.688 58.6295 199.096 58.9255 199.416C59.2215 199.728 59.6135 199.884 60.1015 199.884ZM68.3003 201V199.296H64.0283V198.024L68.0483 192.48H69.8603V197.94H70.8803V199.296H69.8603V201H68.3003ZM65.7323 197.94H68.3003V194.508L65.7323 197.94ZM72.2672 202.8V194.592H73.7432L73.7672 195.552C73.9512 195.192 74.2112 194.92 74.5472 194.736C74.8832 194.544 75.2632 194.448 75.6872 194.448C76.2952 194.448 76.7992 194.6 77.1992 194.904C77.6072 195.2 77.9112 195.604 78.1112 196.116C78.3112 196.62 78.4112 197.18 78.4112 197.796C78.4112 198.412 78.3072 198.972 78.0992 199.476C77.8992 199.98 77.5952 200.384 77.1872 200.688C76.7872 200.992 76.2832 201.144 75.6752 201.144C75.2672 201.144 74.8952 201.056 74.5592 200.88C74.2312 200.696 73.9792 200.444 73.8032 200.124V202.8H72.2672ZM75.3152 199.896C75.7792 199.896 76.1432 199.712 76.4072 199.344C76.6792 198.968 76.8152 198.452 76.8152 197.796C76.8152 197.14 76.6792 196.628 76.4072 196.26C76.1432 195.884 75.7792 195.696 75.3152 195.696C74.8512 195.696 74.4832 195.872 74.2112 196.224C73.9392 196.576 73.8032 197.1 73.8032 197.796C73.8032 198.492 73.9352 199.016 74.1992 199.368C74.4712 199.72 74.8432 199.896 75.3152 199.896ZM78.7292 201L81.0332 197.736L78.8132 194.592H80.4812L81.9452 196.776L83.3852 194.592H85.0772L82.8692 197.748L85.1612 201H83.4932L81.9692 198.696L80.4332 201H78.7292Z" fill="black"/>
<rect x="110.667" y="185" width="90.6667" height="24" rx="12" fill="white"/>
<path d="M134 194.333L136 192.333M136 192.333L138 194.333M136 192.333V201.667M134 199.667L136 201.667M136 201.667L138 199.667M140.667 193H145.333M140.667 197H145.333M140.667 201H145.333" stroke="black" stroke-width="1.33333" stroke-linecap="round" stroke-linejoin="round"/>
<path d="M152.228 201L155.3 192.48H157.208L160.28 201H158.648L157.94 198.984H154.568L153.86 201H152.228ZM155.024 197.652H157.484L156.26 194.052L155.024 197.652ZM163.19 201.144C162.534 201.144 162.018 200.932 161.642 200.508C161.266 200.084 161.078 199.488 161.078 198.72V194.592H162.614V198.336C162.614 198.88 162.702 199.276 162.878 199.524C163.062 199.772 163.338 199.896 163.706 199.896C164.114 199.896 164.434 199.76 164.666 199.488C164.898 199.208 165.014 198.804 165.014 198.276V194.592H166.55V201H165.146L165.122 199.956C164.786 200.748 164.142 201.144 163.19 201.144ZM170.525 201C169.885 201 169.413 200.856 169.109 200.568C168.813 200.272 168.665 199.804 168.665 199.164V195.78H167.657V194.592H168.665V193.092H170.201V194.592H171.893V195.78H170.201V199.02C170.201 199.324 170.265 199.532 170.393 199.644C170.529 199.756 170.729 199.812 170.993 199.812H171.893V201H170.525ZM175.698 201.144C175.066 201.144 174.51 201.008 174.03 200.736C173.558 200.456 173.19 200.068 172.926 199.572C172.67 199.068 172.542 198.476 172.542 197.796C172.542 197.116 172.67 196.528 172.926 196.032C173.19 195.528 173.558 195.14 174.03 194.868C174.51 194.588 175.066 194.448 175.698 194.448C176.33 194.448 176.882 194.588 177.354 194.868C177.826 195.14 178.19 195.528 178.446 196.032C178.71 196.528 178.842 197.116 178.842 197.796C178.842 198.476 178.71 199.068 178.446 199.572C178.19 200.068 177.826 200.456 177.354 200.736C176.882 201.008 176.33 201.144 175.698 201.144ZM175.698 199.896C176.186 199.896 176.566 199.712 176.838 199.344C177.11 198.976 177.246 198.46 177.246 197.796C177.246 197.132 177.11 196.616 176.838 196.248C176.566 195.88 176.186 195.696 175.698 195.696C175.202 195.696 174.818 195.88 174.546 196.248C174.274 196.616 174.138 197.132 174.138 197.796C174.138 198.46 174.274 198.976 174.546 199.344C174.818 199.712 175.202 199.896 175.698 199.896Z" fill="black"/>
<rect x="205.333" y="185" width="90.6667" height="24" rx="12" fill="white"/>
<path d="M233.5 203.667L230.833 201L233.5 198.333L234.45 199.267L233.383 200.333H238.95L237.9 199.267L238.833 198.333L241.5 201L238.833 203.667L237.883 202.733L238.95 201.667H233.383L234.433 202.733L233.5 203.667ZM231.5 197V190.333H232.833V197H231.5ZM235.5 197V190.333H236.833V197H235.5ZM239.5 197V190.333H240.833V197H239.5Z" fill="black"/>
<path d="M258.259 201.192C257.531 201.192 256.903 201.012 256.375 200.652C255.847 200.292 255.439 199.78 255.151 199.116C254.863 198.452 254.719 197.664 254.719 196.752C254.719 195.84 254.863 195.052 255.151 194.388C255.439 193.716 255.847 193.2 256.375 192.84C256.911 192.472 257.539 192.288 258.259 192.288C258.987 192.288 259.615 192.468 260.143 192.828C260.679 193.188 261.091 193.704 261.379 194.376C261.667 195.04 261.811 195.832 261.811 196.752C261.811 197.664 261.667 198.452 261.379 199.116C261.091 199.78 260.683 200.292 260.155 200.652C259.627 201.012 258.995 201.192 258.259 201.192ZM258.259 199.836C258.883 199.836 259.363 199.576 259.699 199.056C260.035 198.528 260.203 197.76 260.203 196.752C260.203 195.744 260.035 194.976 259.699 194.448C259.363 193.912 258.883 193.644 258.259 193.644C257.643 193.644 257.167 193.912 256.831 194.448C256.495 194.976 256.327 195.744 256.327 196.752C256.327 197.76 256.495 198.528 256.831 199.056C257.167 199.576 257.643 199.836 258.259 199.836ZM264.77 196.608C264.21 196.608 263.746 196.432 263.378 196.08C263.01 195.728 262.826 195.2 262.826 194.496C262.826 193.792 263.01 193.264 263.378 192.912C263.746 192.56 264.21 192.384 264.77 192.384C265.338 192.384 265.802 192.56 266.162 192.912C266.53 193.264 266.714 193.792 266.714 194.496C266.714 195.2 266.53 195.728 266.162 196.08C265.802 196.432 265.338 196.608 264.77 196.608ZM263.87 201L269.606 192.48H270.662L264.926 201H263.87ZM264.77 195.744C265.33 195.744 265.61 195.328 265.61 194.496C265.61 193.664 265.33 193.248 264.77 193.248C264.21 193.248 263.93 193.664 263.93 194.496C263.93 195.328 264.21 195.744 264.77 195.744ZM269.762 201.096C269.194 201.096 268.726 200.92 268.358 200.568C267.998 200.216 267.818 199.688 267.818 198.984C267.818 198.28 267.998 197.752 268.358 197.4C268.726 197.048 269.194 196.872 269.762 196.872C270.322 196.872 270.782 197.048 271.142 197.4C271.51 197.752 271.694 198.28 271.694 198.984C271.694 199.688 271.51 200.216 271.142 200.568C270.782 200.92 270.322 201.096 269.762 201.096ZM269.762 200.232C270.322 200.232 270.602 199.816 270.602 198.984C270.602 198.152 270.322 197.736 269.762 197.736C269.202 197.736 268.922 198.152 268.922 198.984C268.922 199.816 269.202 200.232 269.762 200.232Z" fill="black"/>
<defs>
<clipPath id="clip0_435_10125">
<rect width="16" height="16" fill="white" transform="translate(36.3335 189)"/>
</clipPath>
</defs>
</svg>
