<svg width="312" height="225" viewBox="0 0 312 225" fill="none" xmlns="http://www.w3.org/2000/svg">
<rect width="312" height="225" rx="16" fill="#181818"/>
<rect x="16" y="18" width="280" height="140" rx="12" fill="white" fill-opacity="0.04"/>
<path d="M133.314 96.8006C132.501 96.8006 131.811 96.6465 131.244 96.3383C130.684 96.0231 130.256 95.6063 129.962 95.0879C129.675 94.5626 129.531 93.9847 129.531 93.3543C129.531 92.829 129.612 92.3492 129.773 91.9149C129.934 91.4806 130.193 91.0988 130.551 90.7696C130.915 90.4334 131.402 90.1532 132.011 89.9291C132.431 89.775 132.932 89.6384 133.514 89.5193C134.095 89.4002 134.753 89.2882 135.489 89.1831C136.224 89.071 137.033 88.9484 137.916 88.8154L136.886 89.3827C136.886 88.7103 136.725 88.2165 136.403 87.9013C136.081 87.5861 135.541 87.4285 134.785 87.4285C134.365 87.4285 133.927 87.53 133.471 87.7331C133.016 87.9363 132.697 88.297 132.515 88.8154L129.931 87.9958C130.218 87.0572 130.757 86.2937 131.549 85.7053C132.34 85.1169 133.419 84.8228 134.785 84.8228C135.786 84.8228 136.676 84.9769 137.454 85.2851C138.231 85.5933 138.819 86.1256 139.219 86.8821C139.443 87.3024 139.576 87.7226 139.618 88.1429C139.66 88.5632 139.681 89.0325 139.681 89.5508V96.4854H137.18V94.1528L137.538 94.6361C136.984 95.3996 136.385 95.953 135.741 96.2962C135.104 96.6324 134.295 96.8006 133.314 96.8006ZM133.923 94.5521C134.449 94.5521 134.89 94.461 135.247 94.2789C135.611 94.0898 135.899 93.8762 136.109 93.638C136.326 93.3998 136.473 93.2002 136.55 93.0391C136.697 92.7309 136.781 92.3737 136.802 91.9674C136.83 91.5541 136.844 91.2109 136.844 90.9377L137.685 91.1479C136.837 91.288 136.151 91.407 135.625 91.5051C135.1 91.5962 134.676 91.6802 134.354 91.7573C134.032 91.8343 133.748 91.9184 133.503 92.0094C133.223 92.1215 132.995 92.2441 132.82 92.3772C132.652 92.5033 132.526 92.6433 132.442 92.7974C132.365 92.9515 132.326 93.1232 132.326 93.3123C132.326 93.5715 132.389 93.7956 132.515 93.9847C132.648 94.1668 132.834 94.3069 133.072 94.405C133.31 94.5031 133.594 94.5521 133.923 94.5521ZM146.637 96.8216C145.747 96.8216 145.022 96.671 144.462 96.3698C143.901 96.0686 143.464 95.6868 143.148 95.2245C142.84 94.7622 142.62 94.2824 142.487 93.7851C142.353 93.2808 142.273 92.822 142.245 92.4087C142.217 91.9954 142.203 91.6942 142.203 91.5051V85.138H145.103V90.4964C145.103 90.7556 145.117 91.0883 145.145 91.4946C145.173 91.8939 145.26 92.2966 145.407 92.7029C145.555 93.1092 145.793 93.4489 146.122 93.7221C146.458 93.9952 146.931 94.1318 147.54 94.1318C147.785 94.1318 148.048 94.0933 148.328 94.0162C148.609 93.9392 148.871 93.7921 149.116 93.575C149.361 93.3508 149.561 93.0251 149.715 92.5978C149.876 92.1635 149.957 91.5962 149.957 90.8957L151.596 91.6732C151.596 92.5698 151.414 93.4103 151.05 94.1949C150.685 94.9794 150.135 95.6133 149.4 96.0966C148.672 96.5799 147.75 96.8216 146.637 96.8216ZM150.314 96.4854V92.7239H149.957V85.138H152.836V96.4854H150.314ZM162.581 96.4854C161.796 96.6324 161.026 96.6955 160.269 96.6745C159.52 96.6605 158.847 96.5309 158.252 96.2857C157.663 96.0336 157.215 95.6308 156.907 95.0774C156.627 94.5591 156.48 94.0338 156.466 93.5014C156.452 92.9621 156.445 92.3527 156.445 91.6732V81.9859H159.303V91.5051C159.303 91.9464 159.306 92.3457 159.313 92.7029C159.327 93.0531 159.401 93.3333 159.534 93.5434C159.786 93.9427 160.189 94.1598 160.742 94.1949C161.295 94.2299 161.908 94.2019 162.581 94.1108V96.4854ZM154.511 87.3444V85.138H162.581V87.3444H154.511ZM169.6 96.8006C168.458 96.8006 167.457 96.5449 166.595 96.0336C165.734 95.5222 165.061 94.8183 164.578 93.9217C164.102 93.0181 163.863 91.9814 163.863 90.8117C163.863 89.6279 164.109 88.5877 164.599 87.6911C165.089 86.7875 165.765 86.0836 166.627 85.5792C167.488 85.0749 168.479 84.8228 169.6 84.8228C170.742 84.8228 171.743 85.0784 172.605 85.5898C173.474 86.1011 174.15 86.8085 174.633 87.7121C175.116 88.6087 175.358 89.6419 175.358 90.8117C175.358 91.9884 175.113 93.0286 174.622 93.9322C174.139 94.8288 173.463 95.5327 172.595 96.0441C171.733 96.5484 170.735 96.8006 169.6 96.8006ZM169.6 94.1318C170.518 94.1318 171.201 93.8236 171.649 93.2072C172.104 92.5838 172.332 91.7853 172.332 90.8117C172.332 89.803 172.101 88.9975 171.638 88.3951C171.183 87.7927 170.504 87.4915 169.6 87.4915C168.977 87.4915 168.465 87.6316 168.066 87.9118C167.667 88.1919 167.369 88.5807 167.173 89.078C166.984 89.5753 166.889 90.1532 166.889 90.8117C166.889 91.8273 167.117 92.6363 167.572 93.2387C168.035 93.8341 168.711 94.1318 169.6 94.1318ZM177.668 96.4854V81.3555H182.565C182.684 81.3555 182.929 81.359 183.3 81.366C183.671 81.373 184.029 81.3975 184.372 81.4395C185.591 81.5866 186.624 82.0104 187.471 82.7109C188.319 83.4113 188.963 84.3009 189.405 85.3796C189.846 86.4583 190.066 87.6386 190.066 88.9204C190.066 90.2023 189.846 91.3825 189.405 92.4612C188.963 93.5399 188.319 94.4295 187.471 95.13C186.624 95.8304 185.591 96.2542 184.372 96.4013C184.029 96.4433 183.671 96.4678 183.3 96.4748C182.929 96.4818 182.684 96.4854 182.565 96.4854H177.668ZM180.568 93.7956H182.565C182.754 93.7956 183.009 93.7921 183.332 93.7851C183.654 93.7711 183.944 93.7396 184.204 93.6905C184.862 93.5574 185.398 93.2492 185.811 92.7659C186.231 92.2826 186.54 91.7012 186.736 91.0218C186.939 90.3423 187.04 89.6419 187.04 88.9204C187.04 88.1639 186.935 87.446 186.725 86.7665C186.522 86.0871 186.21 85.5127 185.79 85.0434C185.37 84.5741 184.841 84.2764 184.204 84.1503C183.944 84.0943 183.654 84.0628 183.332 84.0558C183.009 84.0487 182.754 84.0452 182.565 84.0452H180.568V93.7956ZM198.303 96.8006C197.182 96.8006 196.17 96.6044 195.267 96.2122C194.37 95.8129 193.631 95.2455 193.05 94.5101C192.475 93.7676 192.111 92.885 191.957 91.8623L194.941 91.4211C195.151 92.2896 195.585 92.9586 196.244 93.4279C196.902 93.8972 197.652 94.1318 198.492 94.1318C198.961 94.1318 199.417 94.0583 199.858 93.9112C200.299 93.7641 200.66 93.5469 200.94 93.2597C201.227 92.9726 201.371 92.6188 201.371 92.1986C201.371 92.0445 201.346 91.8974 201.297 91.7573C201.255 91.6102 201.182 91.4736 201.077 91.3475C200.972 91.2214 200.821 91.1023 200.625 90.9903C200.436 90.8782 200.194 90.7766 199.9 90.6856L195.97 89.5298C195.676 89.4458 195.333 89.3267 194.941 89.1726C194.556 89.0185 194.181 88.7978 193.817 88.5107C193.452 88.2235 193.148 87.8452 192.902 87.3759C192.664 86.8996 192.545 86.3007 192.545 85.5792C192.545 84.5636 192.801 83.7195 193.312 83.0471C193.824 82.3747 194.507 81.8738 195.361 81.5446C196.216 81.2154 197.161 81.0543 198.198 81.0613C199.242 81.0753 200.173 81.2539 200.993 81.5972C201.812 81.9404 202.499 82.4412 203.052 83.0996C203.605 83.7511 204.005 84.5496 204.25 85.4952L201.161 86.0205C201.049 85.5302 200.842 85.1169 200.541 84.7807C200.24 84.4445 199.879 84.1888 199.459 84.0137C199.045 83.8386 198.611 83.744 198.156 83.73C197.708 83.716 197.284 83.7791 196.885 83.9192C196.492 84.0523 196.17 84.2484 195.918 84.5075C195.673 84.7667 195.55 85.0749 195.55 85.4321C195.55 85.7614 195.652 86.031 195.855 86.2412C196.058 86.4443 196.314 86.6089 196.622 86.735C196.93 86.8611 197.245 86.9661 197.568 87.0502L200.194 87.7647C200.586 87.8697 201.021 88.0098 201.497 88.1849C201.973 88.3531 202.429 88.5912 202.863 88.8994C203.304 89.2006 203.665 89.5999 203.945 90.0972C204.232 90.5945 204.376 91.2249 204.376 91.9884C204.376 92.801 204.204 93.5119 203.861 94.1213C203.525 94.7237 203.07 95.2245 202.495 95.6238C201.921 96.016 201.269 96.3102 200.541 96.5064C199.819 96.7025 199.073 96.8006 198.303 96.8006ZM206.685 96.4854V81.3555H209.249L214.25 91.4L219.252 81.3555H221.815V96.4854H219.146V87.4495L214.755 96.4854H213.746L209.354 87.4495V96.4854H206.685Z" fill="white"/>
<path d="M105.301 78.1913C106.856 77.354 108.727 77.354 110.282 78.1913L115.557 81.0311C117.258 81.9474 118.319 83.7246 118.319 85.6571V93.2518C118.319 95.1842 117.258 96.9606 115.557 97.8768L110.282 100.717C108.727 101.554 106.856 101.554 105.301 100.717L100.026 97.8768C98.325 96.9606 97.2638 95.1842 97.2637 93.2518V85.6571C97.2637 83.7245 98.3248 81.9474 100.026 81.0311L105.301 78.1913Z" fill="url(#paint0_linear_487_7083)" stroke="#8F23FA" stroke-width="3.50228"/>
<path d="M97.2637 82.9707L106.468 87.6119C107.332 88.0475 108.353 88.0432 109.213 87.6003L118.204 82.9707" stroke="#8F23FA" stroke-width="3.50228"/>
<path d="M17.12 205V194.92H18.807V203.418H23.259V205H17.12ZM27.7838 205.21C27.0278 205.21 26.3675 205.04 25.8028 204.699C25.2382 204.358 24.7995 203.889 24.4868 203.292C24.1788 202.69 24.0248 201.999 24.0248 201.22C24.0248 200.427 24.1835 199.731 24.5008 199.134C24.8182 198.537 25.2592 198.07 25.8238 197.734C26.3885 197.398 27.0418 197.23 27.7838 197.23C28.5445 197.23 29.2072 197.4 29.7718 197.741C30.3365 198.082 30.7752 198.553 31.0878 199.155C31.4005 199.752 31.5568 200.441 31.5568 201.22C31.5568 202.004 31.3982 202.697 31.0808 203.299C30.7682 203.896 30.3295 204.365 29.7648 204.706C29.2002 205.042 28.5398 205.21 27.7838 205.21ZM27.7838 203.628C28.4558 203.628 28.9552 203.404 29.2818 202.956C29.6085 202.508 29.7718 201.929 29.7718 201.22C29.7718 200.487 29.6062 199.904 29.2748 199.47C28.9435 199.031 28.4465 198.812 27.7838 198.812C27.3312 198.812 26.9578 198.915 26.6638 199.12C26.3745 199.321 26.1598 199.603 26.0198 199.967C25.8798 200.326 25.8098 200.744 25.8098 201.22C25.8098 201.953 25.9755 202.538 26.3068 202.977C26.6428 203.411 27.1352 203.628 27.7838 203.628ZM36.2771 208.57C35.8571 208.57 35.4535 208.505 35.0661 208.374C34.6835 208.243 34.3381 208.054 34.0301 207.807C33.7221 207.564 33.4701 207.27 33.2741 206.925L34.8281 206.155C34.9728 206.43 35.1758 206.633 35.4371 206.764C35.7031 206.899 35.9855 206.967 36.2841 206.967C36.6341 206.967 36.9468 206.904 37.2221 206.778C37.4975 206.657 37.7098 206.475 37.8591 206.232C38.0131 205.994 38.0855 205.695 38.0761 205.336V203.187H38.2861V197.44H39.7631V205.364C39.7631 205.555 39.7538 205.737 39.7351 205.91C39.7211 206.087 39.6955 206.26 39.6581 206.428C39.5461 206.918 39.3315 207.319 39.0141 207.632C38.6968 207.949 38.3025 208.185 37.8311 208.339C37.3645 208.493 36.8465 208.57 36.2771 208.57ZM36.1301 205.21C35.4348 205.21 34.8281 205.035 34.3101 204.685C33.7921 204.335 33.3908 203.859 33.1061 203.257C32.8215 202.655 32.6791 201.976 32.6791 201.22C32.6791 200.455 32.8215 199.773 33.1061 199.176C33.3955 198.574 33.8038 198.1 34.3311 197.755C34.8585 197.405 35.4791 197.23 36.1931 197.23C36.9118 197.23 37.5138 197.405 37.9991 197.755C38.4891 198.1 38.8601 198.574 39.1121 199.176C39.3641 199.778 39.4901 200.459 39.4901 201.22C39.4901 201.971 39.3641 202.65 39.1121 203.257C38.8601 203.859 38.4845 204.335 37.9851 204.685C37.4858 205.035 36.8675 205.21 36.1301 205.21ZM36.3891 203.698C36.8418 203.698 37.2058 203.595 37.4811 203.39C37.7611 203.18 37.9641 202.888 38.0901 202.515C38.2208 202.142 38.2861 201.71 38.2861 201.22C38.2861 200.725 38.2208 200.294 38.0901 199.925C37.9641 199.552 37.7658 199.262 37.4951 199.057C37.2245 198.847 36.8745 198.742 36.4451 198.742C35.9925 198.742 35.6191 198.854 35.3251 199.078C35.0311 199.297 34.8141 199.596 34.6741 199.974C34.5341 200.347 34.4641 200.763 34.4641 201.22C34.4641 201.682 34.5318 202.102 34.6671 202.48C34.8071 202.853 35.0195 203.15 35.3041 203.369C35.5888 203.588 35.9505 203.698 36.3891 203.698ZM45.0651 205.21C44.3091 205.21 43.6488 205.04 43.0841 204.699C42.5194 204.358 42.0808 203.889 41.7681 203.292C41.4601 202.69 41.3061 201.999 41.3061 201.22C41.3061 200.427 41.4648 199.731 41.7821 199.134C42.0994 198.537 42.5404 198.07 43.1051 197.734C43.6698 197.398 44.3231 197.23 45.0651 197.23C45.8258 197.23 46.4884 197.4 47.0531 197.741C47.6178 198.082 48.0564 198.553 48.3691 199.155C48.6818 199.752 48.8381 200.441 48.8381 201.22C48.8381 202.004 48.6794 202.697 48.3621 203.299C48.0494 203.896 47.6108 204.365 47.0461 204.706C46.4814 205.042 45.8211 205.21 45.0651 205.21ZM45.0651 203.628C45.7371 203.628 46.2364 203.404 46.5631 202.956C46.8898 202.508 47.0531 201.929 47.0531 201.22C47.0531 200.487 46.8874 199.904 46.5561 199.47C46.2248 199.031 45.7278 198.812 45.0651 198.812C44.6124 198.812 44.2391 198.915 43.9451 199.12C43.6558 199.321 43.4411 199.603 43.3011 199.967C43.1611 200.326 43.0911 200.744 43.0911 201.22C43.0911 201.953 43.2568 202.538 43.5881 202.977C43.9241 203.411 44.4164 203.628 45.0651 203.628ZM50.2404 201.248V199.925H54.4404V201.248H50.2404ZM56.2593 205V194.92H57.9673L62.6433 202.025V194.92H64.3513V205H62.6433L57.9673 197.895V205H56.2593ZM68.4221 205.21C67.8761 205.21 67.4141 205.107 67.0361 204.902C66.6581 204.692 66.3711 204.414 66.1751 204.069C65.9838 203.724 65.8881 203.343 65.8881 202.928C65.8881 202.564 65.9488 202.237 66.0701 201.948C66.1915 201.654 66.3781 201.402 66.6301 201.192C66.8821 200.977 67.2088 200.802 67.6101 200.667C67.9135 200.569 68.2681 200.48 68.6741 200.401C69.0848 200.322 69.5281 200.249 70.0041 200.184C70.4848 200.114 70.9865 200.039 71.5091 199.96L70.9071 200.303C70.9118 199.78 70.7951 199.395 70.5571 199.148C70.3191 198.901 69.9178 198.777 69.3531 198.777C69.0125 198.777 68.6835 198.856 68.3661 199.015C68.0488 199.174 67.8271 199.447 67.7011 199.834L66.1611 199.351C66.3478 198.712 66.7025 198.198 67.2251 197.811C67.7525 197.424 68.4618 197.23 69.3531 197.23C70.0251 197.23 70.6155 197.34 71.1241 197.559C71.6375 197.778 72.0178 198.138 72.2651 198.637C72.4005 198.903 72.4821 199.176 72.5101 199.456C72.5381 199.731 72.5521 200.032 72.5521 200.359V205H71.0751V203.362L71.3201 203.628C70.9795 204.174 70.5805 204.575 70.1231 204.832C69.6705 205.084 69.1035 205.21 68.4221 205.21ZM68.7581 203.866C69.1408 203.866 69.4675 203.798 69.7381 203.663C70.0088 203.528 70.2235 203.362 70.3821 203.166C70.5455 202.97 70.6551 202.786 70.7111 202.613C70.7998 202.398 70.8488 202.153 70.8581 201.878C70.8721 201.598 70.8791 201.372 70.8791 201.199L71.3971 201.353C70.8885 201.432 70.4521 201.502 70.0881 201.563C69.7241 201.624 69.4115 201.682 69.1501 201.738C68.8888 201.789 68.6578 201.848 68.4571 201.913C68.2611 201.983 68.0955 202.065 67.9601 202.158C67.8248 202.251 67.7198 202.359 67.6451 202.48C67.5751 202.601 67.5401 202.744 67.5401 202.907C67.5401 203.094 67.5868 203.259 67.6801 203.404C67.7735 203.544 67.9088 203.656 68.0861 203.74C68.2681 203.824 68.4921 203.866 68.7581 203.866ZM83.4535 205V200.408C83.4535 199.89 83.3252 199.486 83.0685 199.197C82.8119 198.903 82.4642 198.756 82.0255 198.756C81.7549 198.756 81.5122 198.819 81.2975 198.945C81.0829 199.066 80.9125 199.248 80.7865 199.491C80.6605 199.729 80.5975 200.014 80.5975 200.345L79.8485 199.904C79.8439 199.381 79.9605 198.922 80.1985 198.525C80.4412 198.124 80.7679 197.811 81.1785 197.587C81.5892 197.363 82.0465 197.251 82.5505 197.251C83.3859 197.251 84.0252 197.503 84.4685 198.007C84.9165 198.506 85.1405 199.164 85.1405 199.981V205H83.4535ZM74.3605 205V197.44H75.8515V199.785H76.0615V205H74.3605ZM78.9175 205V200.429C78.9175 199.902 78.7892 199.491 78.5325 199.197C78.2759 198.903 77.9259 198.756 77.4825 198.756C77.0532 198.756 76.7079 198.903 76.4465 199.197C76.1899 199.491 76.0615 199.874 76.0615 200.345L75.3055 199.841C75.3055 199.351 75.4269 198.91 75.6695 198.518C75.9122 198.126 76.2389 197.818 76.6495 197.594C77.0649 197.365 77.5292 197.251 78.0425 197.251C78.6072 197.251 79.0785 197.372 79.4565 197.615C79.8392 197.853 80.1239 198.18 80.3105 198.595C80.5019 199.006 80.5975 199.47 80.5975 199.988V205H78.9175ZM90.2803 205.21C89.5149 205.21 88.8429 205.044 88.2643 204.713C87.6856 204.382 87.2329 203.922 86.9063 203.334C86.5843 202.746 86.4233 202.069 86.4233 201.304C86.4233 200.478 86.5819 199.762 86.8993 199.155C87.2166 198.544 87.6576 198.07 88.2223 197.734C88.7869 197.398 89.4403 197.23 90.1823 197.23C90.9663 197.23 91.6313 197.414 92.1773 197.783C92.7279 198.147 93.1363 198.663 93.4023 199.33C93.6683 199.997 93.7686 200.784 93.7033 201.689H92.0303V201.073C92.0256 200.252 91.8809 199.652 91.5963 199.274C91.3116 198.896 90.8636 198.707 90.2523 198.707C89.5616 198.707 89.0483 198.922 88.7123 199.351C88.3763 199.776 88.2083 200.399 88.2083 201.22C88.2083 201.985 88.3763 202.578 88.7123 202.998C89.0483 203.418 89.5383 203.628 90.1823 203.628C90.5976 203.628 90.9546 203.537 91.2533 203.355C91.5566 203.168 91.7899 202.9 91.9533 202.55L93.6193 203.054C93.3299 203.735 92.8819 204.265 92.2753 204.643C91.6733 205.021 91.0083 205.21 90.2803 205.21ZM87.6763 201.689V200.415H92.8773V201.689H87.6763Z" fill="#BABABA"/>
<path d="M266.98 205V194.92H271.145C271.243 194.92 271.369 194.925 271.523 194.934C271.677 194.939 271.819 194.953 271.95 194.976C272.533 195.065 273.014 195.258 273.392 195.557C273.775 195.856 274.057 196.234 274.239 196.691C274.426 197.144 274.519 197.648 274.519 198.203C274.519 198.754 274.426 199.258 274.239 199.715C274.052 200.168 273.768 200.543 273.385 200.842C273.007 201.141 272.529 201.334 271.95 201.423C271.819 201.442 271.675 201.456 271.516 201.465C271.362 201.474 271.238 201.479 271.145 201.479H268.667V205H266.98ZM268.667 199.904H271.075C271.168 199.904 271.273 199.899 271.39 199.89C271.507 199.881 271.614 199.862 271.712 199.834C271.992 199.764 272.211 199.64 272.37 199.463C272.533 199.286 272.648 199.085 272.713 198.861C272.783 198.637 272.818 198.418 272.818 198.203C272.818 197.988 272.783 197.769 272.713 197.545C272.648 197.316 272.533 197.113 272.37 196.936C272.211 196.759 271.992 196.635 271.712 196.565C271.614 196.537 271.507 196.521 271.39 196.516C271.273 196.507 271.168 196.502 271.075 196.502H268.667V199.904ZM275.921 205V194.92H277.629L282.305 202.025V194.92H284.013V205H282.305L277.629 197.895V205H275.921ZM290.128 205.21C289.475 205.21 288.861 205.096 288.287 204.867C287.718 204.634 287.216 204.293 286.782 203.845C286.353 203.397 286.017 202.849 285.774 202.2C285.532 201.547 285.41 200.8 285.41 199.96C285.41 198.859 285.616 197.918 286.026 197.139C286.437 196.355 286.999 195.755 287.713 195.34C288.427 194.92 289.232 194.71 290.128 194.71C291.37 194.71 292.352 194.999 293.075 195.578C293.803 196.152 294.296 196.959 294.552 198L292.83 198.273C292.639 197.676 292.326 197.2 291.892 196.845C291.458 196.486 290.905 196.306 290.233 196.306C289.557 196.297 288.994 196.444 288.546 196.747C288.098 197.05 287.76 197.477 287.531 198.028C287.307 198.579 287.195 199.223 287.195 199.96C287.195 200.697 287.307 201.339 287.531 201.885C287.755 202.426 288.091 202.849 288.539 203.152C288.992 203.455 289.557 203.612 290.233 203.621C290.742 203.626 291.188 203.535 291.57 203.348C291.953 203.157 292.266 202.87 292.508 202.487C292.751 202.1 292.914 201.617 292.998 201.038H291.22V199.715H294.79C294.8 199.79 294.807 199.899 294.811 200.044C294.816 200.189 294.818 200.275 294.818 200.303C294.818 201.255 294.629 202.102 294.251 202.844C293.878 203.581 293.341 204.16 292.641 204.58C291.941 205 291.104 205.21 290.128 205.21Z" fill="#BABABA"/>
<defs>
<linearGradient id="paint0_linear_487_7083" x1="92.886" y1="78.8847" x2="120.029" y2="98.1368" gradientUnits="userSpaceOnUse">
<stop stop-color="white" stop-opacity="0"/>
<stop offset="1" stop-color="#AA56FF" stop-opacity="0.16"/>
</linearGradient>
</defs>
</svg>
